<?xml version="1.0" standalone="no"?>
<!DOCTYPE svg PUBLIC "-//W3C//DTD SVG 20010904//EN"
 "http://www.w3.org/TR/2001/REC-SVG-20010904/DTD/svg10.dtd">
<svg version="1.0" xmlns="http://www.w3.org/2000/svg"
 width="500.000000pt" height="500.000000pt" viewBox="0 0 500.000000 500.000000"
 preserveAspectRatio="xMidYMid meet">
<metadata>
Created by potrace 1.14, written by Peter Selinger 2001-2017
</metadata>
<g transform="translate(0.000000,500.000000) scale(0.100000,-0.100000)"
fill="#000000" stroke="none">
<path d="M3089 4837 c-53 -52 -56 -57 -62 -116 -4 -37 -19 -88 -36 -125 -17
-33 -44 -99 -60 -144 -17 -46 -47 -113 -66 -150 -19 -37 -43 -102 -52 -144
-10 -44 -23 -78 -30 -78 -6 0 -28 17 -47 38 -150 158 -153 161 -210 177 -92
27 -153 3 -181 -69 -13 -33 -14 -51 -6 -86 6 -25 11 -61 11 -80 0 -56 17 -103
50 -139 17 -18 29 -35 27 -37 -12 -12 -159 100 -200 152 -25 33 -58 74 -72 91
-15 18 -38 50 -52 70 -14 21 -63 77 -108 124 -45 47 -95 105 -110 127 -26 39
-27 47 -21 109 5 58 3 73 -14 101 -11 17 -27 32 -35 32 -27 0 -55 -60 -55
-118 0 -64 14 -99 78 -194 27 -40 66 -106 86 -146 20 -40 52 -89 70 -110 18
-20 37 -48 41 -62 4 -14 42 -70 84 -125 153 -203 151 -200 151 -239 0 -20 -7
-96 -16 -169 -18 -148 -14 -268 11 -337 14 -40 14 -61 4 -183 -15 -175 -6
-493 16 -597 9 -41 21 -136 26 -210 4 -74 16 -182 24 -240 9 -58 18 -139 22
-181 l5 -75 -73 -12 c-109 -17 -243 -58 -337 -103 -139 -67 -270 -213 -425
-473 -131 -220 -279 -338 -683 -543 -238 -121 -291 -139 -514 -179 -176 -31
-221 -40 -282 -60 l-48 -16 0 -159 0 -159 2500 0 2500 0 0 166 0 165 -52 23
c-29 13 -100 38 -158 55 -58 18 -124 44 -148 58 -24 13 -100 79 -170 145 -284
270 -390 349 -682 503 -515 273 -538 287 -692 436 -134 130 -195 161 -319 167
l-88 4 4 27 c2 14 7 43 10 64 4 24 11 37 18 34 23 -8 49 15 69 60 15 34 22 80
28 182 7 122 27 236 86 491 4 14 9 104 13 201 7 171 8 178 33 211 15 19 53 48
85 64 64 32 103 85 81 111 -6 7 -7 13 -4 13 21 0 -72 63 -144 97 -93 45 -126
73 -139 121 -8 26 -6 32 8 37 26 8 53 50 100 153 23 51 63 127 89 170 45 73
81 159 61 146 -5 -3 -9 2 -9 10 0 11 6 13 18 9 16 -7 16 -5 1 17 -9 14 -27 27
-40 28 -34 5 -60 31 -55 56 2 12 19 50 36 85 18 36 43 106 57 155 37 141 90
286 127 346 57 94 71 164 40 195 -9 9 -24 15 -33 13 -11 -3 -19 7 -26 32 -16
55 -48 52 -116 -13z m-535 -2573 c2 -93 8 -179 13 -190 10 -20 1 -293 -11
-332 -6 -18 -15 -22 -48 -22 -39 0 -40 1 -32 28 4 15 9 185 9 377 1 224 7 391
15 465 l14 115 18 -135 c11 -74 20 -212 22 -306z m145 -1231 c-1 -10 -1 -60 0
-110 l1 -93 110 0 110 0 0 -100 0 -99 -111 -3 -111 -3 -1 -110 -2 -110 -97 -3
-98 -3 0 116 0 115 -115 0 -115 0 0 100 0 100 115 0 115 0 0 110 0 110 101 0
c89 0 100 -2 98 -17z"/>
</g>
</svg>
