<?xml version="1.0" standalone="no"?>
<!DOCTYPE svg PUBLIC "-//W3C//DTD SVG 20010904//EN"
 "http://www.w3.org/TR/2001/REC-SVG-20010904/DTD/svg10.dtd">
<svg version="1.0" xmlns="http://www.w3.org/2000/svg"
 width="500.000000pt" height="500.000000pt" viewBox="0 0 500.000000 500.000000"
 preserveAspectRatio="xMidYMid meet">
<metadata>
Created by potrace 1.14, written by Peter Selinger 2001-2017
</metadata>
<g transform="translate(0.000000,500.000000) scale(0.100000,-0.100000)"
fill="#000000" stroke="none">
<path d="M3089 4833 c-54 -55 -57 -61 -62 -119 -3 -39 -15 -81 -35 -120 -16
-32 -41 -92 -56 -132 -14 -40 -44 -108 -65 -150 -22 -42 -48 -112 -58 -154
-11 -50 -23 -78 -32 -78 -14 0 -55 41 -129 128 -52 62 -114 94 -183 94 -56 -1
-89 -18 -116 -58 -15 -24 -16 -38 -5 -140 12 -120 19 -142 60 -186 39 -43 20
-44 -45 -3 -88 56 -123 93 -249 266 -11 16 -64 76 -117 134 -53 58 -108 123
-122 145 -23 36 -24 44 -15 92 11 57 1 107 -27 129 -13 11 -20 8 -44 -19 -23
-26 -29 -42 -29 -80 0 -71 12 -101 83 -209 35 -54 78 -126 96 -160 17 -34 44
-77 60 -95 15 -18 32 -44 36 -57 4 -13 40 -67 81 -120 127 -167 144 -191 153
-214 5 -13 1 -84 -11 -177 -21 -172 -19 -295 7 -356 15 -35 15 -55 4 -194 -14
-186 -7 -461 16 -575 9 -44 20 -141 25 -215 5 -74 16 -180 25 -235 8 -55 18
-138 21 -185 l7 -85 -99 -19 c-120 -22 -258 -67 -339 -109 -115 -61 -255 -225
-403 -472 -81 -137 -186 -244 -330 -339 -134 -88 -474 -268 -581 -306 -46 -17
-170 -46 -275 -65 -105 -19 -224 -45 -263 -56 l-73 -22 0 -158 0 -159 2500 0
2500 0 0 165 0 164 -27 15 c-16 7 -82 31 -148 51 -66 21 -141 48 -167 61 -26
13 -100 74 -165 135 -350 331 -402 367 -892 623 -281 147 -364 203 -507 339
-141 133 -187 157 -316 165 l-89 5 5 26 c3 14 8 53 11 86 3 33 13 97 22 143
11 57 13 93 7 115 -5 18 -6 57 -3 87 3 30 7 51 8 45 3 -21 41 53 56 110 58
219 69 328 52 510 -6 63 3 117 22 135 55 50 141 152 135 161 -6 11 33 10 76
-2 19 -5 25 33 10 61 -6 12 -50 39 -96 62 -95 45 -138 77 -159 119 -17 32 -21
164 -5 139 8 -13 10 -12 10 3 0 9 6 17 13 17 6 0 18 15 26 33 7 17 39 79 70
136 31 57 56 107 57 110 0 3 4 14 8 23 4 9 2 27 -4 39 -11 19 -10 25 6 36 10
7 33 13 51 13 18 0 33 4 33 10 0 18 -39 30 -98 30 l-60 0 5 88 c3 48 12 99 20
114 7 15 20 63 28 105 8 43 37 146 63 228 39 123 57 162 95 214 54 72 63 98
50 138 -17 49 -50 42 -114 -24z m-530 -2573 c16 -332 17 -362 6 -450 l-10 -85
-44 -3 -44 -3 9 43 c4 24 8 201 9 393 1 237 6 384 15 455 l14 105 18 -130 c10
-71 22 -218 27 -325z m139 -1317 l3 -113 109 0 110 0 0 -100 0 -100 -110 0
-109 0 -3 -112 -3 -113 -97 -3 -97 -3 -3 113 -3 113 -112 3 -113 3 0 99 0 100
115 0 115 0 0 115 0 116 98 -3 97 -3 3 -112z"/>
<path d="M3189 4713 c-1 -5 -1 -12 0 -17 1 -5 -5 -6 -13 -3 -15 6 -16 -17 -1
-30 4 -4 5 -3 2 4 -4 6 -2 13 5 15 10 4 22 38 12 38 -2 0 -5 -3 -5 -7z"/>
</g>
</svg>
